<?xml version="1.0" encoding="UTF-8" standalone="no"?>
<svg
   xmlns:dc="http://purl.org/dc/elements/1.1/"
   xmlns:cc="http://creativecommons.org/ns#"
   xmlns:rdf="http://www.w3.org/1999/02/22-rdf-syntax-ns#"
   xmlns:svg="http://www.w3.org/2000/svg"
   xmlns="http://www.w3.org/2000/svg"
   xmlns:xlink="http://www.w3.org/1999/xlink"
   xmlns:sodipodi="http://sodipodi.sourceforge.net/DTD/sodipodi-0.dtd"
   xmlns:inkscape="http://www.inkscape.org/namespaces/inkscape"
   style="isolation:isolate"
   viewBox="0 0 128 128"
   width="128"
   height="128"
   version="1.1"
   id="svg129"
   sodipodi:docname="com.github.cryptowyrm.copypastegrab.svg"
   inkscape:version="0.92.4 5da689c313, 2019-01-14"
   enable-background="new">
  <metadata
     id="metadata133">
    <rdf:RDF>
      <cc:Work
         rdf:about="">
        <dc:format>image/svg+xml</dc:format>
        <dc:type
           rdf:resource="http://purl.org/dc/dcmitype/StillImage" />
      </cc:Work>
    </rdf:RDF>
  </metadata>
  <sodipodi:namedview
     pagecolor="#ffffff"
     bordercolor="#666666"
     borderopacity="1"
     objecttolerance="10"
     gridtolerance="10"
     guidetolerance="10"
     inkscape:pageopacity="0"
     inkscape:pageshadow="2"
     inkscape:window-width="2560"
     inkscape:window-height="1386"
     id="namedview131"
     showgrid="true"
     inkscape:zoom="4"
     inkscape:cx="43.008421"
     inkscape:cy="87.94217"
     inkscape:window-x="0"
     inkscape:window-y="28"
     inkscape:window-maximized="1"
     inkscape:current-layer="layer1"
     inkscape:snap-intersection-paths="true"
     inkscape:object-paths="true"
     inkscape:snap-center="true"
     inkscape:snap-object-midpoints="true"
     inkscape:snap-nodes="true"
     showguides="true"
     inkscape:guide-bbox="true"
     inkscape:snap-page="true">
    <inkscape:grid
       type="xygrid"
       id="grid1102" />
    <sodipodi:guide
       position="127,8"
       orientation="0,1"
       id="guide1104"
       inkscape:locked="false" />
    <sodipodi:guide
       position="126.29907,114"
       orientation="0,1"
       id="guide1106"
       inkscape:locked="false" />
  </sodipodi:namedview>
  <defs
     id="defs5">
    <linearGradient
       inkscape:collect="always"
       id="linearGradient2333">
      <stop
         style="stop-color:#9d68d7;stop-opacity:1;"
         offset="0"
         id="stop2329" />
      <stop
         style="stop-color:#c396eb;stop-opacity:1"
         offset="1"
         id="stop2331" />
    </linearGradient>
    <linearGradient
       id="linearGradient1086">
      <stop
         style="stop-color:#c6262e;stop-opacity:1"
         offset="0"
         id="stop1082" />
      <stop
         style="stop-color:#e14f4f;stop-opacity:1"
         offset="1"
         id="stop1084" />
    </linearGradient>
    <linearGradient
       inkscape:collect="always"
       id="linearGradient1159">
      <stop
         style="stop-color:#ffffff;stop-opacity:0.47398844"
         offset="0"
         id="stop1155" />
      <stop
         id="stop893"
         offset="0.52446198"
         style="stop-color:#ffffff;stop-opacity:0.20231214" />
      <stop
         style="stop-color:#ffffff;stop-opacity:0.75722545"
         offset="1"
         id="stop1157" />
    </linearGradient>
    <linearGradient
       inkscape:collect="always"
       id="linearGradient1146">
      <stop
         style="stop-color:#6c36aa;stop-opacity:1;"
         offset="0"
         id="stop1142" />
      <stop
         style="stop-color:#6c36aa;stop-opacity:0;"
         offset="1"
         id="stop1144" />
    </linearGradient>
    <linearGradient
       gradientUnits="userSpaceOnUse"
       gradientTransform="matrix(63.051,0,0,70.028,34,50.972)"
       y2="0.63239431"
       x2="1.1747544"
       y1="0.91637206"
       x1="0.41732463"
       id="linearGradient913"
       spreadMethod="reflect">
      <stop
         id="stop905"
         style="stop-color:#626262;stop-opacity:1"
         stop-opacity="1"
         offset="0" />
      <stop
         id="stop907"
         style="stop-color:rgb(251,251,251)"
         stop-opacity="1"
         offset="0.50128251" />
      <stop
         id="stop909"
         style="stop-color:#3e3e3e;stop-opacity:1"
         stop-opacity="1"
         offset="1" />
      <stop
         id="stop911"
         style="stop-color:rgb(34,34,34)"
         stop-opacity="1"
         offset="1" />
    </linearGradient>
    <defs
       id="defs18">
      <filter
         style="color-interpolation-filters:sRGB"
         filterUnits="objectBoundingBox"
         height="4"
         width="4"
         y="-2"
         x="-2"
         id="WRFd4d3NpfOnJD4am1MuHZCbkU5yCMiX">
        <feGaussianBlur
           id="feGaussianBlur15"
           stdDeviation="2.146804531419514" />
      </filter>
    </defs>
    <defs
       id="defs31">
      <filter
         style="color-interpolation-filters:sRGB"
         filterUnits="objectBoundingBox"
         height="4"
         width="4"
         y="-2"
         x="-2"
         id="PRyrt8jTOCg9IXoUGN4z0RxWDRVjClqJ">
        <feGaussianBlur
           id="feGaussianBlur28"
           stdDeviation="2.2142415" />
      </filter>
    </defs>
    <defs
       id="defs87">
      <filter
         style="color-interpolation-filters:sRGB"
         filterUnits="objectBoundingBox"
         height="4"
         width="4"
         y="-2"
         x="-2"
         id="kqS1lDdwMTTsE2exyKNqwGfAMAZA3VPE">
        <feGaussianBlur
           id="feGaussianBlur76"
           stdDeviation="2.146804531419514"
           in="SourceGraphic" />
        <feOffset
           id="feOffset78"
           result="pf_100_offsetBlur"
           dy="-3"
           dx="0" />
        <feFlood
           id="feFlood80"
           flood-opacity="0.65"
           flood-color="#000000" />
        <feComposite
           id="feComposite82"
           result="pf_100_dropShadow"
           operator="in"
           in2="pf_100_offsetBlur" />
        <feBlend
           id="feBlend84"
           mode="normal"
           in2="pf_100_dropShadow"
           in="SourceGraphic" />
      </filter>
    </defs>
    <linearGradient
       spreadMethod="reflect"
       id="_lgradient_0"
       x1="0.41732463"
       y1="0.91637206"
       x2="1.1747544"
       y2="0.63239431"
       gradientTransform="matrix(63.051,0,0,70.028,34,50.972)"
       gradientUnits="userSpaceOnUse">
      <stop
         offset="0.00000003"
         stop-opacity="1"
         style="stop-color:rgb(189,189,189)"
         id="stop63" />
      <stop
         offset="0.46505362"
         stop-opacity="1"
         style="stop-color:rgb(251,251,251)"
         id="stop65" />
      <stop
         offset="87.391304"
         stop-opacity="1"
         style="stop-color:rgb(128,128,128)"
         id="stop67" />
      <stop
         offset="1"
         stop-opacity="1"
         style="stop-color:rgb(34,34,34)"
         id="stop69" />
    </linearGradient>
    <linearGradient
       id="linearGradient4170">
      <stop
         id="stop1009"
         offset="0"
         style="stop-color:#575d5e;stop-opacity:1" />
      <stop
         id="stop1011"
         offset="1"
         style="stop-color:#292d2e;stop-opacity:1" />
    </linearGradient>
    <linearGradient
       xlink:href="#linearGradient3924-2-2-5-8"
       gradientUnits="userSpaceOnUse"
       gradientTransform="matrix(1.4324324,0,0,1.4362832,35.84732,34.942493)"
       y2="43"
       y1="5"
       x2="24"
       x1="24"
       id="linearGradient3180" />
    <linearGradient
       id="linearGradient3924-2-2-5-8">
      <stop
         id="stop1015"
         style="stop-color:#ffffff;stop-opacity:1"
         offset="0" />
      <stop
         id="stop1017"
         style="stop-color:#ffffff;stop-opacity:0.23529412"
         offset=".063" />
      <stop
         id="stop1019"
         style="stop-color:#ffffff;stop-opacity:0.15686275"
         offset=".951" />
      <stop
         id="stop1021"
         style="stop-color:#ffffff;stop-opacity:0.39215687"
         offset="1" />
    </linearGradient>
    <radialGradient
       xlink:href="#linearGradient3688-166-749-4-0-3-8"
       gradientUnits="userSpaceOnUse"
       gradientTransform="matrix(2.003784,0,0,1.4,27.98813,-17.4)"
       fy="43.5"
       fx="4.993"
       r="2.5"
       cy="43.5"
       cx="4.993"
       id="radialGradient3337-2-2" />
    <linearGradient
       id="linearGradient3688-166-749-4-0-3-8">
      <stop
         id="stop1025"
         style="stop-color:#181818;stop-opacity:1"
         offset="0" />
      <stop
         id="stop1027"
         style="stop-color:#181818;stop-opacity:0"
         offset="1" />
    </linearGradient>
    <radialGradient
       xlink:href="#linearGradient3688-166-749-4-0-3-8"
       gradientUnits="userSpaceOnUse"
       gradientTransform="matrix(2.003784,0,0,1.4,-20.01187,-104.4)"
       fy="43.5"
       fx="4.993"
       r="2.5"
       cy="43.5"
       cx="4.993"
       id="radialGradient3339-1-4" />
    <linearGradient
       id="linearGradient3702-501-757-8-4-1-1">
      <stop
         id="stop1036"
         style="stop-color:#181818;stop-opacity:0"
         offset="0" />
      <stop
         id="stop1038"
         style="stop-color:#181818;stop-opacity:1"
         offset=".5" />
      <stop
         id="stop1040"
         style="stop-color:#181818;stop-opacity:0"
         offset="1" />
    </linearGradient>
    <linearGradient
       xlink:href="#linearGradient3702-501-757-8-4-1-1"
       gradientUnits="userSpaceOnUse"
       y2="39.999"
       y1="47.028"
       x2="25.058"
       x1="25.058"
       id="linearGradient4159" />
    <linearGradient
       xlink:href="#linearGradient4170"
       gradientUnits="userSpaceOnUse"
       y2="59"
       y1="5"
       x2="32"
       x1="32"
       id="linearGradient4166"
       gradientTransform="translate(38.225701,37.413271)" />
    <linearGradient
       inkscape:collect="always"
       xlink:href="#linearGradient1146"
       id="linearGradient1148"
       x1="66.961021"
       y1="77.636871"
       x2="66.734146"
       y2="69.726906"
       gradientUnits="userSpaceOnUse"
       gradientTransform="matrix(1.6921633,0,0,1.6921633,-114.36942,-37.225218)" />
    <linearGradient
       inkscape:collect="always"
       xlink:href="#linearGradient1159"
       id="linearGradient1161"
       x1="65.549194"
       y1="123.85022"
       x2="66.489983"
       y2="69.322968"
       gradientUnits="userSpaceOnUse" />
    <mask
       maskUnits="userSpaceOnUse"
       id="mask889">
      <path
         style="fill:#9d68d7;fill-opacity:1;stroke:none;stroke-width:0.85096562;stroke-linecap:round;stroke-linejoin:round;stroke-opacity:0.75722543"
         d="m 65.333985,69.741915 a 24.678001,5.956759 0 0 0 -24.591796,5.53711 h -0.08594 v 0.419922 5.546876 c 0,1.07647 0.439014,2.10587 1.216797,2.84961 l 17.136719,16.392577 c 0.777782,0.74375 1.21875,1.77314 1.21875,2.84961 v 15.33398 h 0.002 c -0.0015,0.0273 -0.0028,0.0547 -0.0039,0.082 6.2e-5,2.8175 2.284073,5.10151 5.101563,5.10157 2.74135,-0.003 4.98994,-2.17265 5.091797,-4.91211 h 0.0059 v -0.11328 c 0.0015,-0.0254 0.0028,-0.0508 0.0039,-0.0762 -8.95e-4,-0.0371 -0.0022,-0.0742 -0.0039,-0.11132 l 0.01367,-15.30469 c 8.87e-4,-1.07647 0.439015,-2.10587 1.216797,-2.84961 L 88.79297,84.095433 c 0.777782,-0.74375 1.21875,-1.77314 1.21875,-2.84961 V 75.698947 75.275118 H 89.94727 A 24.678001,5.956759 0 0 0 65.333985,69.741915 Z"
         id="path891"
         inkscape:connector-curvature="0" />
    </mask>
    <filter
       color-interpolation-filters="sRGB"
       height="46"
       width="567"
       y="190"
       x="-266"
       filterUnits="userSpaceOnUse"
       id="filter0_d">
      <feFlood
         id="feFlood1082"
         result="BackgroundImageFix"
         flood-opacity="0" />
      <feColorMatrix
         id="feColorMatrix1084"
         values="0 0 0 0 0 0 0 0 0 0 0 0 0 0 0 0 0 0 255 0"
         type="matrix"
         in="SourceAlpha" />
      <feOffset
         id="feOffset1086"
         dy="7"
         dx="0" />
      <feGaussianBlur
         id="feGaussianBlur1088"
         stdDeviation="3.5" />
      <feColorMatrix
         id="feColorMatrix1090"
         values="0 0 0 0 0 0 0 0 0 0 0 0 0 0 0 0 0 0 0.3 0"
         type="matrix" />
      <feBlend
         id="feBlend1092"
         result="effect1_dropShadow"
         in2="BackgroundImageFix"
         mode="normal" />
      <feBlend
         id="feBlend1094"
         result="shape"
         in2="effect1_dropShadow"
         in="SourceGraphic"
         mode="normal" />
    </filter>
    <filter
       color-interpolation-filters="sRGB"
       height="438"
       width="309"
       y="-291"
       x="-137"
       filterUnits="userSpaceOnUse"
       id="filter1_d">
      <feFlood
         id="feFlood1097"
         result="BackgroundImageFix"
         flood-opacity="0" />
      <feColorMatrix
         id="feColorMatrix1099"
         values="0 0 0 0 0 0 0 0 0 0 0 0 0 0 0 0 0 0 255 0"
         type="matrix"
         in="SourceAlpha" />
      <feOffset
         id="feOffset1101"
         dy="4"
         dx="0" />
      <feGaussianBlur
         id="feGaussianBlur1103"
         stdDeviation="2" />
      <feColorMatrix
         id="feColorMatrix1105"
         values="0 0 0 0 0 0 0 0 0 0 0 0 0 0 0 0 0 0 0.25 0"
         type="matrix" />
      <feBlend
         id="feBlend1107"
         result="effect1_dropShadow"
         in2="BackgroundImageFix"
         mode="normal" />
      <feBlend
         id="feBlend1109"
         result="shape"
         in2="effect1_dropShadow"
         in="SourceGraphic"
         mode="normal" />
    </filter>
    <linearGradient
       gradientTransform="matrix(0,553,-553,0,553,0)"
       gradientUnits="userSpaceOnUse"
       y2="0"
       x2="1"
       y1="0"
       x1="0"
       id="paint2_linear">
      <stop
         id="stop1112"
         stop-opacity="0.7"
         stop-color="#EBC654"
         offset="0" />
      <stop
         id="stop1114"
         stop-color="#F2C94C"
         offset="1" />
    </linearGradient>
    <linearGradient
       gradientTransform="matrix(0,553,-553,0,553,0)"
       gradientUnits="userSpaceOnUse"
       y2="0"
       x2="1"
       y1="0"
       x1="0"
       id="paint3_linear">
      <stop
         id="stop1117"
         stop-color="#F2C94C"
         offset="0" />
      <stop
         id="stop1119"
         stop-color="#C9A944"
         offset="1" />
    </linearGradient>
    <linearGradient
       gradientTransform="matrix(0,553,-553,0,553,0)"
       gradientUnits="userSpaceOnUse"
       y2="0"
       x2="1"
       y1="0"
       x1="0"
       id="paint4_linear">
      <stop
         id="stop1122"
         stop-color="#F2F2F2"
         offset="0" />
      <stop
         id="stop1124"
         stop-color="#E0E0E0"
         offset="1" />
    </linearGradient>
    <linearGradient
       gradientTransform="matrix(0,553,-553,0,553,0)"
       gradientUnits="userSpaceOnUse"
       y2="0"
       x2="1"
       y1="0"
       x1="0"
       id="paint5_linear">
      <stop
         id="stop1127"
         stop-color="#4F4F4F"
         offset="0" />
      <stop
         id="stop1129"
         stop-color="#333333"
         offset="1" />
    </linearGradient>
    <path
       d="M 0 15.1977C 0 6.80424 6.80424 0 15.1977 0L 537.802 0C 546.196 0 553 6.80424 553 15.1977L 553 15.1977C 553 23.5911 546.196 30.3954 537.802 30.3954L 15.1977 30.3954C 6.80424 30.3954 0 23.5911 0 15.1977L 0 15.1977Z"
       id="path0_fill" />
    <path
       d="M 0 20C 0 8.95431 8.95431 0 20 0L 533 0C 544.046 0 553 8.95431 553 20L 553 533C 553 544.046 544.046 553 533 553L 20 553C 8.95431 553 0 544.046 0 533L 0 20Z"
       id="path1_fill" />
    <path
       d="M 20 5L 533 5L 533 -5L 20 -5L 20 5ZM 548 20L 548 533L 558 533L 558 20L 548 20ZM 533 548L 20 548L 20 558L 533 558L 533 548ZM 5 533L 5 20L -5 20L -5 533L 5 533ZM 20 548C 11.7157 548 5 541.284 5 533L -5 533C -5 546.807 6.19288 558 20 558L 20 548ZM 548 533C 548 541.284 541.284 548 533 548L 533 558C 546.807 558 558 546.807 558 533L 548 533ZM 533 5C 541.284 5 548 11.7157 548 20L 558 20C 558 6.19288 546.807 -5 533 -5L 533 5ZM 20 -5C 6.19288 -5 -5 6.19288 -5 20L 5 20C 5 11.7157 11.7157 5 20 5L 20 -5Z"
       id="path2_stroke" />
    <path
       d="M 20 8L 533 8L 533 -8L 20 -8L 20 8ZM 545 20L 545 533L 561 533L 561 20L 545 20ZM 533 545L 20 545L 20 561L 533 561L 533 545ZM 8 533L 8 20L -8 20L -8 533L 8 533ZM 20 545C 13.3726 545 8 539.627 8 533L -8 533C -8 548.464 4.53603 561 20 561L 20 545ZM 545 533C 545 539.627 539.627 545 533 545L 533 561C 548.464 561 561 548.464 561 533L 545 533ZM 533 8C 539.627 8 545 13.3726 545 20L 561 20C 561 4.53603 548.464 -8 533 -8L 533 8ZM 20 -8C 4.53603 -8 -8 4.53603 -8 20L 8 20C 8 13.3726 13.3726 8 20 8L 20 -8Z"
       id="path3_stroke_2x" />
    <path
       d="M 20 10L 533 10L 533 -10L 20 -10L 20 10ZM 543 20L 543 533L 563 533L 563 20L 543 20ZM 533 543L 20 543L 20 563L 533 563L 533 543ZM 10 533L 10 20L -10 20L -10 533L 10 533ZM 20 543C 14.4772 543 10 538.523 10 533L -10 533C -10 549.569 3.43146 563 20 563L 20 543ZM 543 533C 543 538.523 538.523 543 533 543L 533 563C 549.569 563 563 549.569 563 533L 543 533ZM 533 10C 538.523 10 543 14.4772 543 20L 563 20C 563 3.43146 549.569 -10 533 -10L 533 10ZM 20 -10C 3.43146 -10 -10 3.43146 -10 20L 10 20C 10 14.4772 14.4772 10 20 10L 20 -10Z"
       id="path4_stroke_2x" />
    <path
       d="M 185.215 0L 202.864 0L 202.864 64.7128L 217.571 64.7128L 217.571 0L 242.084 0L 242.084 203.875L 292.801 203.875C 299.225 203.875 303.029 211.065 299.415 216.376L 157.021 425.622C 153.846 430.287 146.969 430.287 143.794 425.622L 1.39981 216.376C -2.21439 211.065 1.58953 203.875 8.01365 203.875L 57.7505 203.875L 57.7505 0L 74.4189 0L 74.4189 108.933L 90.1069 108.933L 90.1069 0L 106.775 0L 106.775 31.2778L 122.463 31.2778L 122.463 0L 140.112 0L 140.112 73.3412L 150.898 73.3412L 150.898 0L 169.527 0L 169.527 37.7491L 185.215 37.7491L 185.215 0Z"
       fill-rule="evenodd"
       id="path5_fill" />
    <path
       d="M 202.864 0L 204.864 0L 204.864 -2L 202.864 -2L 202.864 0ZM 185.215 0L 185.215 -2L 183.215 -2L 183.215 0L 185.215 0ZM 202.864 64.7128L 200.864 64.7128L 200.864 66.7128L 202.864 66.7128L 202.864 64.7128ZM 217.571 64.7128L 217.571 66.7128L 219.571 66.7128L 219.571 64.7128L 217.571 64.7128ZM 217.571 0L 217.571 -2L 215.571 -2L 215.571 0L 217.571 0ZM 242.084 0L 244.084 0L 244.084 -2L 242.084 -2L 242.084 0ZM 242.084 203.875L 240.084 203.875L 240.084 205.875L 242.084 205.875L 242.084 203.875ZM 292.801 203.875L 292.801 205.875L 292.801 205.875L 292.801 203.875ZM 299.415 216.376L 297.761 215.251L 297.761 215.251L 299.415 216.376ZM 157.021 425.622L 158.675 426.747L 158.675 426.747L 157.021 425.622ZM 143.794 425.622L 145.447 424.496L 145.447 424.496L 143.794 425.622ZM 1.39981 216.376L -0.253652 217.501L -0.253651 217.501L 1.39981 216.376ZM 8.01365 203.875L 8.01366 201.875L 8.01365 201.875L 8.01365 203.875ZM 57.7505 203.875L 57.7505 205.875L 59.7505 205.875L 59.7505 203.875L 57.7505 203.875ZM 57.7505 0L 57.7505 -2L 55.7505 -2L 55.7505 0L 57.7505 0ZM 74.4189 0L 76.4189 0L 76.4189 -2L 74.4189 -2L 74.4189 0ZM 74.4189 108.933L 72.4189 108.933L 72.4189 110.933L 74.4189 110.933L 74.4189 108.933ZM 90.1069 108.933L 90.1069 110.933L 92.1069 110.933L 92.1069 108.933L 90.1069 108.933ZM 90.1069 0L 90.1069 -2L 88.1069 -2L 88.1069 0L 90.1069 0ZM 106.775 0L 108.775 0L 108.775 -2L 106.775 -2L 106.775 0ZM 106.775 31.2778L 104.775 31.2778L 104.775 33.2778L 106.775 33.2778L 106.775 31.2778ZM 122.463 31.2778L 122.463 33.2778L 124.463 33.2778L 124.463 31.2778L 122.463 31.2778ZM 122.463 0L 122.463 -2L 120.463 -2L 120.463 0L 122.463 0ZM 140.112 0L 142.112 0L 142.112 -2L 140.112 -2L 140.112 0ZM 140.112 73.3412L 138.112 73.3412L 138.112 75.3412L 140.112 75.3412L 140.112 73.3412ZM 150.898 73.3412L 150.898 75.3412L 152.898 75.3412L 152.898 73.3412L 150.898 73.3412ZM 150.898 0L 150.898 -2L 148.898 -2L 148.898 0L 150.898 0ZM 169.527 0L 171.527 0L 171.527 -2L 169.527 -2L 169.527 0ZM 169.527 37.7491L 167.527 37.7491L 167.527 39.7491L 169.527 39.7491L 169.527 37.7491ZM 185.215 37.7491L 185.215 39.7491L 187.215 39.7491L 187.215 37.7491L 185.215 37.7491ZM 202.864 -2L 185.215 -2L 185.215 2L 202.864 2L 202.864 -2ZM 204.864 64.7128L 204.864 0L 200.864 0L 200.864 64.7128L 204.864 64.7128ZM 217.571 62.7128L 202.864 62.7128L 202.864 66.7128L 217.571 66.7128L 217.571 62.7128ZM 215.571 0L 215.571 64.7128L 219.571 64.7128L 219.571 0L 215.571 0ZM 242.084 -2L 217.571 -2L 217.571 2L 242.084 2L 242.084 -2ZM 244.084 203.875L 244.084 0L 240.084 0L 240.084 203.875L 244.084 203.875ZM 242.084 205.875L 292.801 205.875L 292.801 201.875L 242.084 201.875L 242.084 205.875ZM 292.801 205.875C 297.619 205.875 300.472 211.268 297.761 215.251L 301.068 217.501C 305.586 210.863 300.831 201.875 292.801 201.875L 292.801 205.875ZM 297.761 215.251L 155.368 424.496L 158.675 426.747L 301.068 217.501L 297.761 215.251ZM 155.368 424.496C 152.986 427.996 147.828 427.996 145.447 424.496L 142.14 426.747C 146.109 432.579 154.706 432.579 158.675 426.747L 155.368 424.496ZM 145.447 424.496L 3.05327 215.251L -0.253651 217.501L 142.14 426.747L 145.447 424.496ZM 3.05327 215.251C 0.342622 211.268 3.19556 205.875 8.01365 205.875L 8.01365 201.875C -0.0165012 201.875 -4.7714 210.863 -0.253652 217.501L 3.05327 215.251ZM 8.01365 205.875L 57.7505 205.875L 57.7505 201.875L 8.01366 201.875L 8.01365 205.875ZM 55.7505 0L 55.7505 203.875L 59.7505 203.875L 59.7505 0L 55.7505 0ZM 74.4189 -2L 57.7505 -2L 57.7505 2L 74.4189 2L 74.4189 -2ZM 76.4189 108.933L 76.4189 0L 72.4189 0L 72.4189 108.933L 76.4189 108.933ZM 90.1069 106.933L 74.4189 106.933L 74.4189 110.933L 90.1069 110.933L 90.1069 106.933ZM 88.1069 0L 88.1069 108.933L 92.1069 108.933L 92.1069 0L 88.1069 0ZM 106.775 -2L 90.1069 -2L 90.1069 2L 106.775 2L 106.775 -2ZM 108.775 31.2778L 108.775 0L 104.775 0L 104.775 31.2778L 108.775 31.2778ZM 122.463 29.2778L 106.775 29.2778L 106.775 33.2778L 122.463 33.2778L 122.463 29.2778ZM 120.463 0L 120.463 31.2778L 124.463 31.2778L 124.463 0L 120.463 0ZM 140.112 -2L 122.463 -2L 122.463 2L 140.112 2L 140.112 -2ZM 142.112 73.3412L 142.112 0L 138.112 0L 138.112 73.3412L 142.112 73.3412ZM 150.898 71.3412L 140.112 71.3412L 140.112 75.3412L 150.898 75.3412L 150.898 71.3412ZM 148.898 0L 148.898 73.3412L 152.898 73.3412L 152.898 0L 148.898 0ZM 169.527 -2L 150.898 -2L 150.898 2L 169.527 2L 169.527 -2ZM 171.527 37.7491L 171.527 0L 167.527 0L 167.527 37.7491L 171.527 37.7491ZM 185.215 35.7491L 169.527 35.7491L 169.527 39.7491L 185.215 39.7491L 185.215 35.7491ZM 183.215 0L 183.215 37.7491L 187.215 37.7491L 187.215 0L 183.215 0Z"
       id="path6_stroke_2x" />
    <clipPath
       style="clip-rule:evenodd"
       id="clip-0">
      <path
         style="fill:#ffffff"
         inkscape:connector-curvature="0"
         d="M -283,-361 H 317 V 239 H -283 Z"
         id="path1040" />
    </clipPath>
    <mask
       id="mask1073">
      <use
         height="100%"
         width="100%"
         y="0"
         x="0"
         style="fill:#ffffff"
         xlink:href="#path5_fill"
         transform="translate(-133,-290.956)"
         id="use1071" />
    </mask>
    <linearGradient
       xlink:href="#linearGradient3924-2-2-5-8"
       gradientUnits="userSpaceOnUse"
       gradientTransform="matrix(1.4392242,0,0,1.4430932,45.942556,-41.832521)"
       y2="43"
       y1="5"
       x2="24"
       x1="24"
       id="linearGradient3180-4" />
    <radialGradient
       xlink:href="#linearGradient3688-166-749-4-0-3-8"
       gradientUnits="userSpaceOnUse"
       gradientTransform="matrix(2.003784,0,0,1.4,27.98813,-17.4)"
       fy="43.5"
       fx="4.993"
       r="2.5"
       cy="43.5"
       cx="4.993"
       id="radialGradient3337-2-2-4" />
    <radialGradient
       xlink:href="#linearGradient3688-166-749-4-0-3-8"
       gradientUnits="userSpaceOnUse"
       gradientTransform="matrix(2.003784,0,0,1.4,-20.01187,-104.4)"
       fy="43.5"
       fx="4.993"
       r="2.5"
       cy="43.5"
       cx="4.993"
       id="radialGradient3339-1-4-4" />
    <linearGradient
       xlink:href="#linearGradient1086"
       gradientUnits="userSpaceOnUse"
       y2="59"
       y1="5"
       x2="32"
       x1="32"
       id="linearGradient4166-3"
       gradientTransform="matrix(1.0047414,0,0,1.0047414,48.332214,-39.350028)" />
    <linearGradient
       inkscape:collect="always"
       xlink:href="#linearGradient1086"
       id="linearGradient1266"
       gradientUnits="userSpaceOnUse"
       gradientTransform="matrix(0.71045946,0.71045946,-0.71045946,0.71045946,135.00045,7.5309184)"
       x1="32"
       y1="5"
       x2="32"
       y2="59" />
    <linearGradient
       inkscape:collect="always"
       xlink:href="#linearGradient1146"
       id="linearGradient1338"
       gradientUnits="userSpaceOnUse"
       gradientTransform="matrix(1.290834,0,0,1.290834,-24.601222,-30.950849)"
       x1="66.718933"
       y1="81.219826"
       x2="67.557259"
       y2="69.339561" />
    <linearGradient
       inkscape:collect="always"
       xlink:href="#linearGradient1159"
       id="linearGradient1340"
       gradientUnits="userSpaceOnUse"
       x1="65.549194"
       y1="123.85022"
       x2="66.489983"
       y2="69.322968" />
    <linearGradient
       inkscape:collect="always"
       xlink:href="#linearGradient1086"
       id="linearGradient1342"
       gradientUnits="userSpaceOnUse"
       gradientTransform="matrix(1.0047414,0,0,1.0047414,48.332214,-39.350028)"
       x1="32"
       y1="5"
       x2="32"
       y2="59" />
    <linearGradient
       inkscape:collect="always"
       xlink:href="#linearGradient3924-2-2-5-8"
       id="linearGradient1344"
       gradientUnits="userSpaceOnUse"
       gradientTransform="matrix(1.4392242,0,0,1.4430932,45.942556,-41.832521)"
       x1="24"
       y1="5"
       x2="24"
       y2="43" />
    <linearGradient
       inkscape:collect="always"
       xlink:href="#linearGradient2333"
       id="linearGradient2335"
       x1="50"
       y1="110.39861"
       x2="100"
       y2="60.455219"
       gradientUnits="userSpaceOnUse" />
  </defs>
  <g
     inkscape:groupmode="layer"
     id="layer3"
     inkscape:label="Layer 3" />
  <g
     inkscape:groupmode="layer"
     id="layer1"
     inkscape:label="Layer 1">
    <path
       inkscape:connector-curvature="0"
       id="path881"
       d="M 54.430137,59.823458 C 38.944667,75.316529 28.992139,91.053201 31.63044,95.873902 l -0.10283,0.10283 0.502454,0.502454 6.63706,6.637064 c 1.28804,1.28804 3.045055,1.99446 4.865617,1.95372 l 40.119149,-0.89039 c 1.820574,-0.0407 3.579917,0.66335 4.867952,1.95138 l 10.932111,10.93211 0.0024,-0.002 c 0.03087,0.0344 0.06211,0.0688 0.09348,0.10275 3.371337,3.37119 8.837157,3.37119 12.208457,1e-5 3.27643,-3.28384 3.37101,-8.57032 0.21501,-11.97007 l 0.007,-0.007 -0.13554,-0.13554 c -0.0286,-0.0322 -0.0575,-0.0641 -0.0866,-0.0958 -0.0455,-0.0433 -0.0914,-0.0862 -0.13783,-0.12856 L 100.7377,93.912924 c -1.287021,-1.289056 -1.994465,-3.045057 -1.953732,-4.86562 L 99.674314,48.9284 c 0.04072,-1.820574 -0.663349,-3.579917 -1.951388,-4.867955 l -6.63706,-6.637061 -0.507129,-0.507128 -0.07712,0.07712 c -4.831612,-2.628462 -20.578911,7.338197 -36.071478,22.83008 z"
       style="fill:url(#linearGradient2335);fill-opacity:1;stroke:none;stroke-width:1.43997276;stroke-linecap:round;stroke-linejoin:round;stroke-opacity:0.75722543"
       sodipodi:nodetypes="ccccsccsccccccccccccscccc" />
    <path
       style="fill:none;fill-opacity:1;stroke:#412167;stroke-width:1.69216323;stroke-linecap:round;stroke-miterlimit:4;stroke-dasharray:none;stroke-opacity:0.75722543"
       d="M 31.518826,95.969808 C 27.582416,92.033398 37.611559,75.622075 53.919544,59.31409 70.227529,43.006105 86.638854,32.976961 90.575265,36.913371"
       id="ellipse1123"
       inkscape:connector-curvature="0"
       sodipodi:nodetypes="csc" />
    <path
       style="fill:none;fill-opacity:1;stroke:#6c36aa;stroke-width:1.31090701;stroke-linecap:round;stroke-linejoin:round;stroke-miterlimit:4;stroke-dasharray:none;stroke-opacity:0.75722543"
       d="M 53.921013,59.314335 C 38.435543,74.807406 28.483014,90.544079 31.121316,95.36478 l -0.102831,0.102831 0.502454,0.502454 6.637056,6.637055 c 1.288042,1.28804 3.045056,1.99446 4.865621,1.95373 l 40.119159,-0.89039 c 1.820573,-0.0407 3.579912,0.66335 4.867957,1.95139 l 10.93211,10.93211 0.0024,-0.002 c 0.03087,0.0344 0.06211,0.0688 0.09348,0.10276 3.371328,3.37117 8.837148,3.37117 12.208458,0 3.27643,-3.28384 3.371,-8.57032 0.21501,-11.97007 l 0.007,-0.007 -0.13555,-0.13555 c -0.0286,-0.0322 -0.0575,-0.0641 -0.0866,-0.0958 -0.0455,-0.0433 -0.0914,-0.0862 -0.13783,-0.12857 L 100.22858,93.403806 C 98.941559,92.11475 98.23412,90.358752 98.274852,88.538189 l 0.890336,-40.118912 c 0.04072,-1.820575 -0.663348,-3.579915 -1.951391,-4.867957 l -6.637056,-6.637057 -0.507129,-0.507129 -0.07711,0.07711 C 85.160886,33.855786 69.413581,43.822449 53.921013,59.314335 Z"
       id="path1121"
       inkscape:connector-curvature="0"
       sodipodi:nodetypes="ccccsccsccccccccccccscccc" />
    <ellipse
       style="fill:url(#linearGradient1148);fill-opacity:1;stroke-width:1.43997276"
       cx="-3.8145173"
       cy="90.148079"
       rx="41.759209"
       ry="10.079809"
       id="ellipse987"
       transform="rotate(-45)" />
    <path
       inkscape:connector-curvature="0"
       id="path1153"
       d="m 65.333984,69.316406 c -12.945049,0.0032 -23.679834,2.420205 -24.591796,5.53711 h -0.08594 v 0.419922 5.546874 c 0,1.076471 0.439014,2.10587 1.216797,2.84961 L 59.009766,100.0625 c 0.777782,0.74375 1.21875,1.77314 1.21875,2.84961 v 9.13644 h 0.002 c -0.0015,0.0273 -0.0028,0.0547 -0.0039,0.082 6.2e-5,2.8175 2.284073,5.10151 5.101563,5.10157 2.74135,-0.003 4.98994,-2.17265 5.091797,-4.91211 h 0.0059 v -0.11328 c 0.0015,-0.0254 0.0028,-0.0508 0.0039,-0.0762 -8.95e-4,-0.0371 -0.0022,-0.0742 -0.0039,-0.11132 l 0.01367,-9.10715 c 8.87e-4,-1.07647 0.439015,-2.10587 1.216797,-2.84961 L 88.792969,83.669922 c 0.777782,-0.74375 1.21875,-1.773139 1.21875,-2.84961 v -5.546874 -0.423829 h -0.06445 C 89.026634,71.732256 78.281503,69.316691 65.333984,69.316406 Z"
       style="fill:none;fill-opacity:1;stroke:url(#linearGradient1161);stroke-width:1.54938591;stroke-miterlimit:4;stroke-dasharray:none;stroke-opacity:0.75722543"
       mask="url(#mask889)"
       transform="matrix(1.1965401,-1.1965401,1.1965401,1.1965401,-107.1936,54.549192)"
       sodipodi:nodetypes="ccccsccsccccccccccccscccc" />
    <g
       id="g1316"
       transform="translate(-110.22456)">
      <path
         inkscape:connector-curvature="0"
         id="path1306"
         d="m 59.734107,59.074387 c -16.709909,0.0041 -30.566734,3.124083 -31.743926,7.147489 h -0.110934 v 0.54205 7.160097 c 0,1.389544 0.566694,2.718328 1.570682,3.678372 l 22.12066,21.160096 c 1.003987,0.960058 1.573204,2.288829 1.573204,3.678369 v 11.79362 h 0.0026 c -0.0019,0.0352 -0.0036,0.0706 -0.005,0.10585 8e-5,3.63693 2.948359,6.58521 6.585271,6.58528 3.538628,-0.004 6.441185,-2.80453 6.572665,-6.34072 h 0.0076 v -0.14622 c 0.0019,-0.0328 0.0036,-0.0656 0.005,-0.0984 -0.0012,-0.0479 -0.0028,-0.0958 -0.005,-0.1437 l 0.01765,-11.75581 c 0.0011,-1.38954 0.566695,-2.718329 1.570683,-3.678374 L 90.015763,77.602395 c 1.003987,-0.960058 1.573204,-2.288829 1.573204,-3.678372 v -7.160097 -0.547093 h -0.0832 C 90.317382,62.192849 76.447203,59.074756 59.734107,59.074387 Z"
         style="fill:#9d68d7;fill-opacity:1;stroke:none;stroke-width:1.09845531;stroke-linecap:round;stroke-linejoin:round;stroke-opacity:0.75722543"
         sodipodi:nodetypes="ccccsccsccccccccccccscccc" />
      <path
         style="fill:none;fill-opacity:1;stroke:#412167;stroke-width:1.29083395;stroke-linecap:round;stroke-miterlimit:4;stroke-dasharray:none;stroke-opacity:0.75722543"
         d="m 27.878244,66.213403 c 0,-4.24662 14.262059,-7.689186 31.855202,-7.689186 17.593143,0 31.855204,3.442566 31.855204,7.689187"
         id="path1308"
         inkscape:connector-curvature="0"
         sodipodi:nodetypes="csc" />
      <path
         style="fill:none;fill-opacity:1;stroke:#6c36aa;stroke-width:1;stroke-linecap:round;stroke-linejoin:round;stroke-miterlimit:4;stroke-dasharray:none;stroke-opacity:0.75722543"
         d="m 59.734106,58.525142 c -16.709909,0.0041 -30.566734,3.124083 -31.743926,7.147489 h -0.110935 v 0.54205 7.160093 c 0,1.389546 0.566694,2.718329 1.570683,3.678375 l 22.12066,21.160106 c 1.003987,0.960058 1.573204,2.288825 1.573204,3.678375 v 11.79362 h 0.0026 c -0.0019,0.0352 -0.0036,0.0706 -0.005,0.10585 8e-5,3.63692 2.948359,6.5852 6.585271,6.58528 3.538628,-0.004 6.441184,-2.80453 6.572665,-6.34072 h 0.0076 v -0.14623 c 0.0019,-0.0328 0.0036,-0.0656 0.005,-0.0984 -0.0012,-0.0479 -0.0028,-0.0958 -0.005,-0.1437 l 0.01765,-11.75581 c 0.0011,-1.38954 0.566696,-2.718325 1.570683,-3.678371 l 22.1205,-21.16 c 1.003988,-0.960058 1.573204,-2.288828 1.573204,-3.678375 v -7.160093 -0.547093 h -0.08319 C 90.317389,61.643604 76.447205,58.52551 59.734106,58.525142 Z"
         id="path1310"
         inkscape:connector-curvature="0"
         sodipodi:nodetypes="ccccsccsccccccccccccscccc" />
      <ellipse
         style="fill:url(#linearGradient1338);fill-opacity:1;stroke-width:1.09845531"
         cx="59.733448"
         cy="66.213402"
         rx="31.855204"
         ry="7.689187"
         id="ellipse1312" />
      <path
         inkscape:connector-curvature="0"
         id="path1314"
         d="m 65.333984,69.316406 c -12.945049,0.0032 -23.679834,2.420205 -24.591796,5.53711 h -0.08594 v 0.419922 5.546874 c 0,1.076471 0.439014,2.10587 1.216797,2.84961 L 59.009766,100.0625 c 0.777782,0.74375 1.21875,1.77314 1.21875,2.84961 v 9.13644 h 0.002 c -0.0015,0.0273 -0.0028,0.0547 -0.0039,0.082 6.2e-5,2.8175 2.284073,5.10151 5.101563,5.10157 2.74135,-0.003 4.98994,-2.17265 5.091797,-4.91211 h 0.0059 v -0.11328 c 0.0015,-0.0254 0.0028,-0.0508 0.0039,-0.0762 -8.95e-4,-0.0371 -0.0022,-0.0742 -0.0039,-0.11132 l 0.01367,-9.10715 c 8.87e-4,-1.07647 0.439015,-2.10587 1.216797,-2.84961 L 88.792969,83.669922 c 0.777782,-0.74375 1.21875,-1.773139 1.21875,-2.84961 v -5.546874 -0.423829 h -0.06445 C 89.026634,71.732256 78.281503,69.316691 65.333984,69.316406 Z"
         style="fill:none;fill-opacity:1;stroke:url(#linearGradient1340);stroke-width:1.54938591;stroke-miterlimit:4;stroke-dasharray:none;stroke-opacity:0.75722543"
         mask="url(#mask889)"
         transform="matrix(1.290834,0,0,1.290834,-24.601222,-30.950849)"
         sodipodi:nodetypes="ccccsccsccccccccccccscccc" />
    </g>
    <rect
       style="opacity:1;fill:#9d68d7;fill-opacity:1;fill-rule:evenodd;stroke:none;stroke-width:1.37641585;stroke-linecap:round;stroke-linejoin:round;stroke-miterlimit:4;stroke-dasharray:none;stroke-opacity:0.75686275;paint-order:markers fill stroke"
       id="rect1373"
       width="11"
       height="10.5"
       x="139.5"
       y="59.70837" />
  </g>
  <g
     inkscape:groupmode="layer"
     id="layer2"
     inkscape:label="Layer 2"
     style="display:inline">
    <g
       id="g1278"
       transform="matrix(0.92695121,-0.92695121,0.92695121,0.92695121,-55.69954,60.434986)">
      <rect
         transform="rotate(45)"
         id="rect1030"
         style="color:#000000;display:inline;overflow:visible;visibility:visible;opacity:1;fill:url(#linearGradient4166-3);fill-opacity:1;fill-rule:nonzero;stroke:none;stroke-width:1.00474143;marker:none;enable-background:accumulate"
         ry="3.0142243"
         rx="3.0142243"
         y="-34.82869"
         x="52.853554"
         height="55.26078"
         width="55.26078" />
      <path
         id="path1032"
         style="color:#000000;font-style:normal;font-variant:normal;font-weight:normal;font-stretch:normal;font-size:medium;line-height:normal;font-family:sans-serif;text-indent:0;text-align:start;text-decoration:none;text-decoration-line:none;text-decoration-style:solid;text-decoration-color:#000000;letter-spacing:normal;word-spacing:normal;text-transform:none;writing-mode:lr-tb;direction:ltr;baseline-shift:baseline;text-anchor:start;white-space:normal;clip-rule:nonzero;display:inline;overflow:visible;visibility:visible;opacity:0.15;isolation:auto;mix-blend-mode:normal;color-interpolation:sRGB;color-interpolation-filters:linearRGB;solid-color:#000000;solid-opacity:1;fill:#000000;fill-opacity:1;fill-rule:evenodd;stroke:none;stroke-width:2.00948286;stroke-linecap:butt;stroke-linejoin:round;stroke-miterlimit:4;stroke-dasharray:none;stroke-dashoffset:0;stroke-opacity:1;color-rendering:auto;image-rendering:auto;shape-rendering:auto;text-rendering:auto;enable-background:accumulate"
         d="m 62.324023,37.937671 c -0.592197,-0.550067 -1.540125,-0.532359 -2.110564,0.04024 L 46.735543,51.455828 c -0.769017,0.769182 -0.437727,2.172497 0.593899,2.517136 l 20.220343,6.741039 c 1.128739,0.376782 2.300018,-0.794498 1.923236,-1.923236 l -6.739651,-20.21618 -0.0014,-0.0042 C 62.65202,38.330011 62.511781,38.113534 62.326786,37.94041 a 1.0048419,1.0048419 0 0 0 -0.0028,-0.0028 z"
         inkscape:connector-curvature="0" />
      <rect
         transform="rotate(45)"
         id="rect1034"
         style="opacity:0.3;fill:none;stroke:url(#linearGradient3180-4);stroke-width:1.00474143;stroke-linecap:round;stroke-linejoin:round;stroke-miterlimit:4;stroke-dasharray:none;stroke-dashoffset:0;stroke-opacity:1"
         ry="2.0094829"
         rx="2.0094829"
         y="-33.894279"
         x="53.858292"
         height="53.393967"
         width="53.251297" />
      <rect
         transform="rotate(45)"
         id="rect1036"
         style="color:#000000;display:inline;overflow:visible;visibility:visible;opacity:0.7;fill:none;stroke:#7f1d22;stroke-width:1.00474143;stroke-linecap:round;stroke-linejoin:round;stroke-miterlimit:4;stroke-dasharray:none;stroke-dashoffset:0;stroke-opacity:1;marker:none;enable-background:accumulate"
         ry="3.0142243"
         rx="3.0142243"
         y="-34.82869"
         x="52.853554"
         height="55.26078"
         width="55.26078" />
      <path
         id="path1038"
         style="opacity:0.5;fill:#ffffff;fill-opacity:1;stroke:none;stroke-width:2.00948286;stroke-linecap:round;stroke-linejoin:round;stroke-miterlimit:4;stroke-dasharray:none;stroke-opacity:1"
         d="m 59.86933,18.429176 -2.841838,2.841837 5.683676,5.683676 2.841838,-2.841838 z m 29.839298,29.839298 -2.841838,2.841838 5.683676,5.683675 2.841838,-2.841837 z m -35.522974,-24.155623 -2.841838,2.841838 5.683676,5.683676 2.841838,-2.841838 z m 29.839298,29.839299 -2.841838,2.841837 5.683676,5.683676 2.841838,-2.841838 z m -35.522974,-24.155623 -2.841838,2.841838 5.683676,5.683676 2.841838,-2.841838 z m 29.839298,29.839298 -2.841838,2.841838 5.683676,5.683676 2.841838,-2.841838 z m -35.522974,-24.155622 -2.841838,2.841838 5.683676,5.683676 2.841838,-2.841838 z m 29.839298,29.839298 -2.841837,2.841838 5.683675,5.683676 2.841838,-2.841838 z m -35.522974,-24.155622 -2.841837,2.841838 5.683675,5.683676 2.841838,-2.841838 z m 29.839299,29.839298 -2.841838,2.841838 5.683676,5.683676 2.841837,-2.841838 z m -35.522974,-24.155622 -2.841838,2.841838 5.683676,5.683676 2.841837,-2.841838 z m 29.839298,29.839298 -2.841838,2.841838 5.683676,5.683676 2.841838,-2.841838 z"
         inkscape:connector-curvature="0" />
      <path
         id="path1040-1"
         d="m 61.640836,38.673588 a 0.51548295,0.51548295 0 0 0 -0.716011,0.01388 l -13.479303,13.4793 a 0.51548295,0.51548295 0 0 0 0.201205,0.853384 l 20.220343,6.741039 a 0.51548295,0.51548295 0 0 0 0.652179,-0.652179 l -6.74104,-20.220343 a 0.51548295,0.51548295 0 0 0 -0.137372,-0.215082 z"
         style="color:#000000;font-style:normal;font-variant:normal;font-weight:normal;font-stretch:normal;font-size:medium;line-height:normal;font-family:sans-serif;text-indent:0;text-align:start;text-decoration:none;text-decoration-line:none;text-decoration-style:solid;text-decoration-color:#000000;letter-spacing:normal;word-spacing:normal;text-transform:none;writing-mode:lr-tb;direction:ltr;baseline-shift:baseline;text-anchor:start;white-space:normal;clip-rule:nonzero;display:inline;overflow:visible;visibility:visible;opacity:0.3;isolation:auto;mix-blend-mode:normal;color-interpolation:sRGB;color-interpolation-filters:linearRGB;solid-color:#000000;solid-opacity:1;fill:#000000;fill-opacity:1;fill-rule:evenodd;stroke:none;stroke-width:1.03086281px;stroke-linecap:butt;stroke-linejoin:round;stroke-miterlimit:4;stroke-dasharray:none;stroke-dashoffset:0;stroke-opacity:1;color-rendering:auto;image-rendering:auto;shape-rendering:auto;text-rendering:auto;enable-background:accumulate"
         inkscape:connector-curvature="0" />
      <path
         id="path1042"
         style="color:#000000;font-style:normal;font-variant:normal;font-weight:normal;font-stretch:normal;font-size:medium;line-height:normal;font-family:sans-serif;text-indent:0;text-align:start;text-decoration:none;text-decoration-line:none;text-decoration-style:solid;text-decoration-color:#000000;letter-spacing:normal;word-spacing:normal;text-transform:none;writing-mode:lr-tb;direction:ltr;baseline-shift:baseline;text-anchor:start;white-space:normal;clip-rule:nonzero;display:inline;overflow:visible;visibility:visible;opacity:1;isolation:auto;mix-blend-mode:normal;color-interpolation:sRGB;color-interpolation-filters:linearRGB;solid-color:#000000;solid-opacity:1;fill:#ffffff;fill-opacity:1;fill-rule:evenodd;stroke:none;stroke-width:1.03086281px;stroke-linecap:butt;stroke-linejoin:round;stroke-miterlimit:4;stroke-dasharray:none;stroke-dashoffset:0;stroke-opacity:1;color-rendering:auto;image-rendering:auto;shape-rendering:auto;text-rendering:auto;enable-background:accumulate"
         d="m 62.351775,37.962649 a 0.51548295,0.51548295 0 0 0 -0.71601,0.01388 L 48.156462,51.455828 a 0.51548295,0.51548295 0 0 0 0.201205,0.853384 l 20.220342,6.741039 a 0.51548295,0.51548295 0 0 0 0.652179,-0.652179 L 62.489149,38.17773 a 0.51548295,0.51548295 0 0 0 -0.137372,-0.215083 z"
         inkscape:connector-curvature="0" />
      <path
         id="path1044"
         style="opacity:0.3;fill:#000000;fill-opacity:1;stroke:none;stroke-width:2.00948286;stroke-linecap:round;stroke-linejoin:round;stroke-miterlimit:4;stroke-dasharray:none;stroke-opacity:1"
         d="m 57.027492,21.271013 -0.71046,0.71046 5.683676,5.683676 0.71046,-0.71046 z m 29.839298,29.839299 -0.710459,0.710459 5.683675,5.683676 0.71046,-0.71046 z m -35.522974,-24.155623 -0.710459,0.71046 5.683675,5.683676 0.71046,-0.71046 z m 29.839298,29.839298 -0.710459,0.71046 5.683676,5.683676 0.710459,-0.71046 z M 45.66014,32.638365 l -0.710459,0.71046 5.683676,5.683675 0.710459,-0.710459 z m 29.839298,29.839298 -0.710459,0.71046 5.683676,5.683676 0.710459,-0.71046 z M 39.976464,38.322041 39.266005,39.0325 l 5.683676,5.683676 0.710459,-0.710459 z m 29.839299,29.839298 -0.71046,0.71046 5.683676,5.683675 0.710459,-0.710459 z m -35.522974,-24.155622 -0.71046,0.710459 5.683676,5.683676 0.710459,-0.710459 z m 29.839298,29.839298 -0.71046,0.710459 5.683676,5.683676 0.71046,-0.710459 z m -35.522974,-24.155622 -0.71046,0.710459 5.683676,5.683676 0.71046,-0.710459 z m 29.839298,29.839298 -0.71046,0.710459 5.683676,5.683676 0.71046,-0.710459 z"
         inkscape:connector-curvature="0" />
    </g>
    <path
       style="isolation:isolate;fill:#9d68d7;fill-opacity:1;stroke:none;stroke-width:1.50557661;stroke-linecap:round;stroke-linejoin:round;stroke-opacity:0.75722543"
       d="m 50.594243,61.245344 c -0.504195,0.525328 -0.993137,1.047012 -1.484067,1.571145 a 10.539036,43.661723 45 0 1 1.484067,-1.571145 z m -2.879149,3.068451 c -0.562281,0.614578 -1.10249,1.223586 -1.644966,1.834264 a 10.539036,43.661723 45 0 1 1.644966,-1.834264 z m -2.733397,3.058979 c -0.542896,0.623595 -1.061949,1.241703 -1.582504,1.858872 a 10.539036,43.661723 45 0 1 1.582504,-1.858872 z m -2.636866,3.106315 c -0.340208,0.412343 -0.658637,0.818166 -0.988104,1.226614 a 10.539036,43.661723 45 0 1 0.988104,-1.226614 z M 66.494894,46.605394 a 10.539036,43.661723 45 0 1 2.076541,-1.641166 c -0.685,0.528456 -1.378279,1.079994 -2.076545,1.641162 z m 3.142265,-2.449454 a 10.539036,43.661723 45 0 1 1.826686,-1.353452 c -0.60091,0.434893 -1.212225,0.889971 -1.826686,1.353452 z m 2.987048,-2.176869 a 10.539036,43.661723 45 0 1 1.620359,-1.120627 c -0.533205,0.358772 -1.073312,0.735959 -1.620359,1.120627 z m 2.84319,-1.92701 a 10.539036,43.661723 45 0 1 1.436732,-0.906712 c -0.472475,0.291626 -0.950285,0.591335 -1.436732,0.906712 z M 34.379366,81.280174 c -0.09126,0.142636 -0.19094,0.290143 -0.280142,0.431587 a 10.539036,43.661723 45 0 1 0.280142,-0.431587 z M 78.104262,38.418456 a 10.539036,43.661723 45 0 1 1.381842,-0.787459 c -0.453999,0.251063 -0.911184,0.5102 -1.38185,0.787451 z M 32.938837,83.633084 c -0.124561,0.212571 -0.257468,0.428731 -0.376688,0.637909 a 10.539036,43.661723 45 0 1 0.376688,-0.637909 z M 80.561284,37.047963 a 10.539036,43.661723 45 0 1 1.342084,-0.664413 c -0.440001,0.210359 -0.881599,0.423969 -1.342084,0.664413 z M 31.602427,86.040895 c -0.100523,0.193359 -0.205757,0.391356 -0.300978,0.581132 a 10.539036,43.661723 45 0 1 0.300976,-0.581134 z m 55.2964,-35.254012 A 10.539036,43.661723 45 0 1 68.077384,73.507772 10.539036,43.661723 45 0 1 51.639141,87.935718 l 30.438378,5e-6 c 2.65835,0 4.82124,-2.159238 4.821361,-4.817469 z"
       id="path1200"
       inkscape:connector-curvature="0" />
    <g
       id="g1334"
       transform="translate(-110.22456)">
      <rect
         width="55.26078"
         height="55.26078"
         x="52.853554"
         y="-34.82869"
         rx="3.0142243"
         ry="3.0142243"
         style="color:#000000;display:inline;overflow:visible;visibility:visible;opacity:1;fill:url(#linearGradient1342);fill-opacity:1;fill-rule:nonzero;stroke:none;stroke-width:1.00474143;marker:none;enable-background:accumulate"
         id="rect1318"
         transform="rotate(45)" />
      <path
         inkscape:connector-curvature="0"
         d="m 62.324023,37.937671 c -0.592197,-0.550067 -1.540125,-0.532359 -2.110564,0.04024 L 46.735543,51.455828 c -0.769017,0.769182 -0.437727,2.172497 0.593899,2.517136 l 20.220343,6.741039 c 1.128739,0.376782 2.300018,-0.794498 1.923236,-1.923236 l -6.739651,-20.21618 -0.0014,-0.0042 C 62.65202,38.330011 62.511781,38.113534 62.326786,37.94041 a 1.0048419,1.0048419 0 0 0 -0.0028,-0.0028 z"
         style="color:#000000;font-style:normal;font-variant:normal;font-weight:normal;font-stretch:normal;font-size:medium;line-height:normal;font-family:sans-serif;text-indent:0;text-align:start;text-decoration:none;text-decoration-line:none;text-decoration-style:solid;text-decoration-color:#000000;letter-spacing:normal;word-spacing:normal;text-transform:none;writing-mode:lr-tb;direction:ltr;baseline-shift:baseline;text-anchor:start;white-space:normal;clip-rule:nonzero;display:inline;overflow:visible;visibility:visible;opacity:0.15;isolation:auto;mix-blend-mode:normal;color-interpolation:sRGB;color-interpolation-filters:linearRGB;solid-color:#000000;solid-opacity:1;fill:#000000;fill-opacity:1;fill-rule:evenodd;stroke:none;stroke-width:2.00948286;stroke-linecap:butt;stroke-linejoin:round;stroke-miterlimit:4;stroke-dasharray:none;stroke-dashoffset:0;stroke-opacity:1;color-rendering:auto;image-rendering:auto;shape-rendering:auto;text-rendering:auto;enable-background:accumulate"
         id="path1320" />
      <rect
         width="53.251297"
         height="53.393967"
         x="53.858292"
         y="-33.894279"
         rx="2.0094829"
         ry="2.0094829"
         style="opacity:0.3;fill:none;stroke:url(#linearGradient1344);stroke-width:1.00474143;stroke-linecap:round;stroke-linejoin:round;stroke-miterlimit:4;stroke-dasharray:none;stroke-dashoffset:0;stroke-opacity:1"
         id="rect1322"
         transform="rotate(45)" />
      <rect
         width="55.26078"
         height="55.26078"
         x="52.853554"
         y="-34.82869"
         rx="3.0142243"
         ry="3.0142243"
         style="color:#000000;display:inline;overflow:visible;visibility:visible;opacity:0.7;fill:none;stroke:#7f1d22;stroke-width:1.00474143;stroke-linecap:round;stroke-linejoin:round;stroke-miterlimit:4;stroke-dasharray:none;stroke-dashoffset:0;stroke-opacity:1;marker:none;enable-background:accumulate"
         id="rect1324"
         transform="rotate(45)" />
      <path
         inkscape:connector-curvature="0"
         d="m 59.86933,18.429176 -2.841838,2.841837 5.683676,5.683676 2.841838,-2.841838 z m 29.839298,29.839298 -2.841838,2.841838 5.683676,5.683675 2.841838,-2.841837 z m -35.522974,-24.155623 -2.841838,2.841838 5.683676,5.683676 2.841838,-2.841838 z m 29.839298,29.839299 -2.841838,2.841837 5.683676,5.683676 2.841838,-2.841838 z m -35.522974,-24.155623 -2.841838,2.841838 5.683676,5.683676 2.841838,-2.841838 z m 29.839298,29.839298 -2.841838,2.841838 5.683676,5.683676 2.841838,-2.841838 z m -35.522974,-24.155622 -2.841838,2.841838 5.683676,5.683676 2.841838,-2.841838 z m 29.839298,29.839298 -2.841837,2.841838 5.683675,5.683676 2.841838,-2.841838 z m -35.522974,-24.155622 -2.841837,2.841838 5.683675,5.683676 2.841838,-2.841838 z m 29.839299,29.839298 -2.841838,2.841838 5.683676,5.683676 2.841837,-2.841838 z m -35.522974,-24.155622 -2.841838,2.841838 5.683676,5.683676 2.841837,-2.841838 z m 29.839298,29.839298 -2.841838,2.841838 5.683676,5.683676 2.841838,-2.841838 z"
         style="opacity:0.5;fill:#ffffff;fill-opacity:1;stroke:none;stroke-width:2.00948286;stroke-linecap:round;stroke-linejoin:round;stroke-miterlimit:4;stroke-dasharray:none;stroke-opacity:1"
         id="path1326" />
      <path
         inkscape:connector-curvature="0"
         style="color:#000000;font-style:normal;font-variant:normal;font-weight:normal;font-stretch:normal;font-size:medium;line-height:normal;font-family:sans-serif;text-indent:0;text-align:start;text-decoration:none;text-decoration-line:none;text-decoration-style:solid;text-decoration-color:#000000;letter-spacing:normal;word-spacing:normal;text-transform:none;writing-mode:lr-tb;direction:ltr;baseline-shift:baseline;text-anchor:start;white-space:normal;clip-rule:nonzero;display:inline;overflow:visible;visibility:visible;opacity:0.3;isolation:auto;mix-blend-mode:normal;color-interpolation:sRGB;color-interpolation-filters:linearRGB;solid-color:#000000;solid-opacity:1;fill:#000000;fill-opacity:1;fill-rule:evenodd;stroke:none;stroke-width:1.03086281px;stroke-linecap:butt;stroke-linejoin:round;stroke-miterlimit:4;stroke-dasharray:none;stroke-dashoffset:0;stroke-opacity:1;color-rendering:auto;image-rendering:auto;shape-rendering:auto;text-rendering:auto;enable-background:accumulate"
         d="m 61.640836,38.673588 a 0.51548295,0.51548295 0 0 0 -0.716011,0.01388 l -13.479303,13.4793 a 0.51548295,0.51548295 0 0 0 0.201205,0.853384 l 20.220343,6.741039 a 0.51548295,0.51548295 0 0 0 0.652179,-0.652179 l -6.74104,-20.220343 a 0.51548295,0.51548295 0 0 0 -0.137372,-0.215082 z"
         id="path1328" />
      <path
         inkscape:connector-curvature="0"
         d="m 62.351775,37.962649 a 0.51548295,0.51548295 0 0 0 -0.71601,0.01388 L 48.156462,51.455828 a 0.51548295,0.51548295 0 0 0 0.201205,0.853384 l 20.220342,6.741039 a 0.51548295,0.51548295 0 0 0 0.652179,-0.652179 L 62.489149,38.17773 a 0.51548295,0.51548295 0 0 0 -0.137372,-0.215083 z"
         style="color:#000000;font-style:normal;font-variant:normal;font-weight:normal;font-stretch:normal;font-size:medium;line-height:normal;font-family:sans-serif;text-indent:0;text-align:start;text-decoration:none;text-decoration-line:none;text-decoration-style:solid;text-decoration-color:#000000;letter-spacing:normal;word-spacing:normal;text-transform:none;writing-mode:lr-tb;direction:ltr;baseline-shift:baseline;text-anchor:start;white-space:normal;clip-rule:nonzero;display:inline;overflow:visible;visibility:visible;opacity:1;isolation:auto;mix-blend-mode:normal;color-interpolation:sRGB;color-interpolation-filters:linearRGB;solid-color:#000000;solid-opacity:1;fill:#ffffff;fill-opacity:1;fill-rule:evenodd;stroke:none;stroke-width:1.03086281px;stroke-linecap:butt;stroke-linejoin:round;stroke-miterlimit:4;stroke-dasharray:none;stroke-dashoffset:0;stroke-opacity:1;color-rendering:auto;image-rendering:auto;shape-rendering:auto;text-rendering:auto;enable-background:accumulate"
         id="path1330" />
      <path
         inkscape:connector-curvature="0"
         d="m 57.027492,21.271013 -0.71046,0.71046 5.683676,5.683676 0.71046,-0.71046 z m 29.839298,29.839299 -0.710459,0.710459 5.683675,5.683676 0.71046,-0.71046 z m -35.522974,-24.155623 -0.710459,0.71046 5.683675,5.683676 0.71046,-0.71046 z m 29.839298,29.839298 -0.710459,0.71046 5.683676,5.683676 0.710459,-0.71046 z M 45.66014,32.638365 l -0.710459,0.71046 5.683676,5.683675 0.710459,-0.710459 z m 29.839298,29.839298 -0.710459,0.71046 5.683676,5.683676 0.710459,-0.71046 z M 39.976464,38.322041 39.266005,39.0325 l 5.683676,5.683676 0.710459,-0.710459 z m 29.839299,29.839298 -0.71046,0.71046 5.683676,5.683675 0.710459,-0.710459 z m -35.522974,-24.155622 -0.71046,0.710459 5.683676,5.683676 0.710459,-0.710459 z m 29.839298,29.839298 -0.71046,0.710459 5.683676,5.683676 0.71046,-0.710459 z m -35.522974,-24.155622 -0.71046,0.710459 5.683676,5.683676 0.71046,-0.710459 z m 29.839298,29.839298 -0.71046,0.710459 5.683676,5.683676 0.71046,-0.710459 z"
         style="opacity:0.3;fill:#000000;fill-opacity:1;stroke:none;stroke-width:2.00948286;stroke-linecap:round;stroke-linejoin:round;stroke-miterlimit:4;stroke-dasharray:none;stroke-opacity:1"
         id="path1332" />
    </g>
    <path
       inkscape:connector-curvature="0"
       id="path1336"
       d="m -53.326513,57.772265 c -0.555328,0.0114 -1.100462,0.02906 -1.64799,0.04697 a 33.3065,8.0394999 0 0 1 1.64799,-0.04697 z m -3.208152,0.10211 c -0.634801,0.02821 -1.254692,0.06532 -1.876706,0.102109 a 33.3065,8.0394999 0 0 1 1.876706,-0.102109 z m -3.124424,0.17562 c -0.629207,0.04353 -1.242595,0.09696 -1.856286,0.149074 a 33.3065,8.0394999 0 0 1 1.856286,-0.149074 z m -3.097887,0.253222 c -0.405928,0.03891 -0.796591,0.08605 -1.194625,0.128653 a 33.3065,8.0394999 0 0 1 1.194625,-0.128653 z m 25.904146,0.149074 a 33.3065,8.0394999 0 0 1 2.005341,0.234842 c -0.654541,-0.08444 -1.325999,-0.160895 -2.005341,-0.234846 z m 3.016188,0.373705 a 33.3065,8.0394999 0 0 1 1.715374,0.255263 c -0.558715,-0.08955 -1.13393,-0.173825 -1.715374,-0.255263 z m 2.785432,0.437012 a 33.3065,8.0394999 0 0 1 1.478494,0.269557 c -0.481135,-0.09409 -0.975926,-0.181969 -1.478494,-0.269557 z m 2.573058,0.49419 a 33.3065,8.0394999 0 0 1 1.26406,0.285894 c -0.412159,-0.09755 -0.831554,-0.193618 -1.26406,-0.285894 z m -44.401553,0.07556 c -0.126166,0.02771 -0.259496,0.05351 -0.383907,0.08169 a 33.3065,8.0394999 0 0 1 0.383907,-0.08169 z m 46.705056,0.465601 a 33.3065,8.0394999 0 0 1 1.170127,0.320612 c -0.380312,-0.109464 -0.766698,-0.216292 -1.170127,-0.32062 z m -48.751245,0.02654 c -0.181854,0.04747 -0.370139,0.09238 -0.547277,0.140904 a 33.3065,8.0394999 0 0 1 0.547277,-0.140904 z m 50.815817,0.559537 a 33.3065,8.0394999 0 0 1 1.08231,0.365537 c -0.350806,-0.123869 -0.704226,-0.246846 -1.08231,-0.365537 z m -52.835461,0.01838 c -0.158517,0.05008 -0.322085,0.100112 -0.475813,0.151116 a 33.3065,8.0394999 0 0 1 0.475813,-0.151118 z M -28.1024,71.713735 a 33.3065,8.0394999 0 0 1 -22.408046,2.103371 33.3065,8.0394999 0 0 1 -16.649307,-1.084359 l 16.41854,16.418546 c 1.433923,1.433922 3.76529,1.435892 5.199212,0.0021 z"
       style="isolation:isolate;fill:#9d68d7;fill-opacity:1;stroke:none;stroke-width:1.14849997;stroke-linecap:round;stroke-linejoin:round;stroke-opacity:0.75722543" />
    <path
       style="isolation:isolate;fill:none;fill-opacity:1;stroke:#6c36aa;stroke-width:1.43937588;stroke-linecap:round;stroke-linejoin:round;stroke-miterlimit:4;stroke-dasharray:none;stroke-opacity:0.75686275"
       d="M 90.575264,36.913367 C 94.511675,40.849777 84.48253,57.261102 68.174545,73.569088 51.866561,89.877072 35.455235,99.906219 31.518825,95.969806"
       id="ellipse1367"
       inkscape:connector-curvature="0"
       sodipodi:nodetypes="csc" />
  </g>
</svg>
