<?xml version="1.0" encoding="UTF-8" standalone="no"?>
<svg
   xmlns:dc="http://purl.org/dc/elements/1.1/"
   xmlns:cc="http://creativecommons.org/ns#"
   xmlns:rdf="http://www.w3.org/1999/02/22-rdf-syntax-ns#"
   xmlns:svg="http://www.w3.org/2000/svg"
   xmlns="http://www.w3.org/2000/svg"
   xmlns:xlink="http://www.w3.org/1999/xlink"
   xmlns:sodipodi="http://sodipodi.sourceforge.net/DTD/sodipodi-0.dtd"
   xmlns:inkscape="http://www.inkscape.org/namespaces/inkscape"
   style="isolation:isolate"
   viewBox="0 0 32 32"
   width="32"
   height="32"
   version="1.1"
   id="svg129"
   sodipodi:docname="com.github.cryptowyrm.copypastegrab.svg"
   inkscape:version="0.92.3 (2405546, 2018-03-11)">
  <metadata
     id="metadata133">
    <rdf:RDF>
      <cc:Work
         rdf:about="">
        <dc:format>image/svg+xml</dc:format>
        <dc:type
           rdf:resource="http://purl.org/dc/dcmitype/StillImage" />
        <dc:title />
      </cc:Work>
    </rdf:RDF>
  </metadata>
  <sodipodi:namedview
     pagecolor="#ffffff"
     bordercolor="#666666"
     borderopacity="1"
     objecttolerance="10"
     gridtolerance="10"
     guidetolerance="10"
     inkscape:pageopacity="0"
     inkscape:pageshadow="2"
     inkscape:window-width="1920"
     inkscape:window-height="1075"
     id="namedview131"
     showgrid="false"
     inkscape:zoom="4.7287766"
     inkscape:cx="-81.775216"
     inkscape:cy="24.782324"
     inkscape:window-x="0"
     inkscape:window-y="30"
     inkscape:window-maximized="1"
     inkscape:current-layer="svg129" />
  <defs
     id="defs5">
    <linearGradient
       gradientUnits="userSpaceOnUse"
       gradientTransform="matrix(63.051,0,0,70.028,34,50.972)"
       y2="0.63239431"
       x2="1.1747544"
       y1="0.91637206"
       x1="0.41732463"
       id="linearGradient913"
       spreadMethod="reflect">
      <stop
         id="stop905"
         style="stop-color:#626262;stop-opacity:1"
         stop-opacity="1"
         offset="0" />
      <stop
         id="stop907"
         style="stop-color:rgb(251,251,251)"
         stop-opacity="1"
         offset="0.50128251" />
      <stop
         id="stop909"
         style="stop-color:#3e3e3e;stop-opacity:1"
         stop-opacity="1"
         offset="1" />
      <stop
         id="stop911"
         style="stop-color:rgb(34,34,34)"
         stop-opacity="1"
         offset="1" />
    </linearGradient>
    <defs
       id="defs18">
      <filter
         style="color-interpolation-filters:sRGB"
         filterUnits="objectBoundingBox"
         height="4"
         width="4"
         y="-2"
         x="-2"
         id="WRFd4d3NpfOnJD4am1MuHZCbkU5yCMiX">
        <feGaussianBlur
           id="feGaussianBlur15"
           stdDeviation="2.146804531419514" />
      </filter>
    </defs>
    <defs
       id="defs31">
      <filter
         style="color-interpolation-filters:sRGB"
         filterUnits="objectBoundingBox"
         height="4"
         width="4"
         y="-2"
         x="-2"
         id="PRyrt8jTOCg9IXoUGN4z0RxWDRVjClqJ">
        <feGaussianBlur
           id="feGaussianBlur28"
           stdDeviation="2.2142415" />
      </filter>
    </defs>
    <defs
       id="defs87">
      <filter
         style="color-interpolation-filters:sRGB"
         filterUnits="objectBoundingBox"
         height="4"
         width="4"
         y="-2"
         x="-2"
         id="kqS1lDdwMTTsE2exyKNqwGfAMAZA3VPE">
        <feGaussianBlur
           id="feGaussianBlur76"
           stdDeviation="2.146804531419514"
           in="SourceGraphic" />
        <feOffset
           id="feOffset78"
           result="pf_100_offsetBlur"
           dy="-3"
           dx="0" />
        <feFlood
           id="feFlood80"
           flood-opacity="0.65"
           flood-color="#000000" />
        <feComposite
           id="feComposite82"
           result="pf_100_dropShadow"
           operator="in"
           in2="pf_100_offsetBlur" />
        <feBlend
           id="feBlend84"
           mode="normal"
           in2="pf_100_dropShadow"
           in="SourceGraphic" />
      </filter>
    </defs>
    <linearGradient
       inkscape:collect="always"
       xlink:href="#linearGradient913"
       id="linearGradient914"
       gradientUnits="userSpaceOnUse"
       gradientTransform="matrix(63.051,0,0,70.028,34,50.972)"
       x1="0.41732463"
       y1="0.91637206"
       x2="1.1730773"
       y2="0.59011698"
       spreadMethod="reflect" />
    <linearGradient
       inkscape:collect="always"
       xlink:href="#linearGradient913"
       id="linearGradient878"
       x1="15.096322"
       y1="94.400116"
       x2="76.951645"
       y2="94.400116"
       gradientUnits="userSpaceOnUse"
       spreadMethod="pad"
       gradientTransform="matrix(0.46818853,-0.17549785,0.17549785,0.46818853,102.45476,58.248291)" />
    <clipPath
       clipPathUnits="userSpaceOnUse"
       id="clipPath5151">
      <rect
         style="opacity:1;fill:#000000;fill-opacity:1;stroke:none;stroke-width:0.35274729;stroke-miterlimit:2;stroke-dasharray:none;stroke-opacity:1"
         id="rect5153"
         width="64"
         height="64"
         x="106.33066"
         y="59.702724"
         ry="0" />
    </clipPath>
  </defs>
  <g
     id="g5029"
     transform="matrix(0.5,0,0,0.5,-53.165329,-29.851362)"
     clip-path="url(#clipPath5151)">
    <circle
       cx="138.54926"
       cy="91.709854"
       r="30.102303"
       stroke-miterlimit="4"
       id="circle13"
       style="vector-effect:non-scaling-stroke;fill:#000000;stroke:#ff0000;stroke-width:2.5;stroke-linecap:butt;stroke-linejoin:miter;stroke-miterlimit:4;stroke-dasharray:none;stroke-opacity:1" />
    <circle
       transform="matrix(0.5,0,0,0.5,106.54925,59.70986)"
       style="display:inline;vector-effect:non-scaling-stroke;fill:#434343;fill-opacity:1;stroke:#2c2c2c;stroke-width:2.0999999;stroke-linecap:butt;stroke-linejoin:miter;stroke-miterlimit:4;stroke-dasharray:none;stroke-opacity:1;filter:url(#WRFd4d3NpfOnJD4am1MuHZCbkU5yCMiX)"
       id="circle20"
       stroke-miterlimit="4"
       r="55.419701"
       cy="63.999981"
       cx="64.000008" />
    <g
       transform="matrix(0.5,0,0,0.5,106.54925,59.70986)"
       id="g26"
       style="filter:url(#PRyrt8jTOCg9IXoUGN4z0RxWDRVjClqJ)">
      <rect
         x="22.42"
         y="21.110001"
         width="67.712997"
         height="48.242001"
         transform="matrix(0.978,0.21,-0.21,0.978,10.75,-10.807)"
         id="rect24"
         style="fill:#000000" />
    </g>
    <rect
       x="131.26199"
       y="39.651134"
       width="33.866383"
       height="24.128042"
       transform="rotate(12.11876)"
       stroke-miterlimit="2"
       id="rect33"
       style="vector-effect:non-scaling-stroke;fill:#ff0000;stroke:#610000;stroke-width:1.25;stroke-linecap:butt;stroke-linejoin:miter;stroke-miterlimit:2;stroke-dasharray:none;stroke-opacity:1" />
    <path
       d="m 129.52675,87.83136 2.457,-12.843 7.9555,8.6995 z"
       stroke-miterlimit="4"
       id="path35"
       inkscape:connector-curvature="0"
       style="vector-effect:non-scaling-stroke;fill:#000000;stroke:#000000;stroke-width:0.0755;stroke-linecap:butt;stroke-linejoin:miter;stroke-miterlimit:4;stroke-opacity:1" />
    <g
       transform="matrix(0.5,0,0,0.5,106.54925,59.70986)"
       id="g61">
      <path
         d="m 23.45,53.46 6.758,1.557 c 0.459,0.106 0.745,0.564 0.64,1.022 l -0.942,4.086 c -0.105,0.458 -0.564,0.745 -1.022,0.639 L 22.125,59.207 C 21.667,59.101 21.38,58.643 21.486,58.185 l 0.941,-4.086 c 0.106,-0.458 0.564,-0.745 1.023,-0.639 z"
         id="path37"
         inkscape:connector-curvature="0"
         style="fill:#000000" />
      <path
         d="m 23.45,53.46 6.758,1.557 c 0.459,0.106 0.745,0.564 0.64,1.022 l -0.942,4.086 c -0.105,0.458 -0.564,0.745 -1.022,0.639 L 22.125,59.207 C 21.667,59.101 21.38,58.643 21.486,58.185 l 0.941,-4.086 c 0.106,-0.458 0.564,-0.745 1.023,-0.639 z"
         stroke-miterlimit="2"
         id="path39"
         inkscape:connector-curvature="0"
         style="vector-effect:non-scaling-stroke;fill:none;stroke:#565656;stroke-width:0.105;stroke-linecap:butt;stroke-linejoin:miter;stroke-miterlimit:2;stroke-opacity:1" />
      <path
         d="m 33.473,55.769 6.758,1.558 c 0.459,0.105 0.745,0.563 0.64,1.022 l -0.942,4.085 c -0.105,0.459 -0.563,0.746 -1.022,0.64 L 32.148,61.517 C 31.69,61.411 31.403,60.953 31.509,60.494 l 0.941,-4.085 c 0.106,-0.459 0.564,-0.745 1.023,-0.64 z"
         id="path41"
         inkscape:connector-curvature="0"
         style="fill:#000000" />
      <path
         d="m 33.473,55.769 6.758,1.558 c 0.459,0.105 0.745,0.563 0.64,1.022 l -0.942,4.085 c -0.105,0.459 -0.563,0.746 -1.022,0.64 L 32.148,61.517 C 31.69,61.411 31.403,60.953 31.509,60.494 l 0.941,-4.085 c 0.106,-0.459 0.564,-0.745 1.023,-0.64 z"
         stroke-miterlimit="2"
         id="path43"
         inkscape:connector-curvature="0"
         style="vector-effect:non-scaling-stroke;fill:none;stroke:#565656;stroke-width:0.105;stroke-linecap:butt;stroke-linejoin:miter;stroke-miterlimit:2;stroke-opacity:1" />
      <path
         d="m 43.496,58.079 6.759,1.557 c 0.458,0.106 0.745,0.564 0.639,1.023 l -0.941,4.085 c -0.106,0.459 -0.564,0.745 -1.023,0.639 l -6.758,-1.557 c -0.459,-0.106 -0.745,-0.564 -0.64,-1.022 l 0.942,-4.086 c 0.105,-0.458 0.563,-0.745 1.022,-0.639 z"
         id="path45"
         inkscape:connector-curvature="0"
         style="fill:#000000" />
      <path
         d="m 43.496,58.079 6.759,1.557 c 0.458,0.106 0.745,0.564 0.639,1.023 l -0.941,4.085 c -0.106,0.459 -0.564,0.745 -1.023,0.639 l -6.758,-1.557 c -0.459,-0.106 -0.745,-0.564 -0.64,-1.022 l 0.942,-4.086 c 0.105,-0.458 0.563,-0.745 1.022,-0.639 z"
         stroke-miterlimit="2"
         id="path47"
         inkscape:connector-curvature="0"
         style="vector-effect:non-scaling-stroke;fill:none;stroke:#565656;stroke-width:0.105;stroke-linecap:butt;stroke-linejoin:miter;stroke-miterlimit:2;stroke-opacity:1" />
      <path
         d="m 53.519,60.388 6.759,1.558 c 0.458,0.105 0.745,0.564 0.639,1.022 l -0.941,4.086 c -0.106,0.458 -0.564,0.745 -1.023,0.639 L 52.195,66.136 C 51.736,66.03 51.45,65.572 51.555,65.113 l 0.942,-4.085 c 0.106,-0.459 0.564,-0.745 1.022,-0.64 z"
         id="path49"
         inkscape:connector-curvature="0"
         style="fill:#000000" />
      <path
         d="m 53.519,60.388 6.759,1.558 c 0.458,0.105 0.745,0.564 0.639,1.022 l -0.941,4.086 c -0.106,0.458 -0.564,0.745 -1.023,0.639 L 52.195,66.136 C 51.736,66.03 51.45,65.572 51.555,65.113 l 0.942,-4.085 c 0.106,-0.459 0.564,-0.745 1.022,-0.64 z"
         stroke-miterlimit="2"
         id="path51"
         inkscape:connector-curvature="0"
         style="vector-effect:non-scaling-stroke;fill:none;stroke:#565656;stroke-width:0.105;stroke-linecap:butt;stroke-linejoin:miter;stroke-miterlimit:2;stroke-opacity:1" />
      <path
         d="m 63.542,62.698 6.759,1.557 c 0.459,0.106 0.745,0.564 0.639,1.023 l -0.941,4.085 c -0.106,0.459 -0.564,0.745 -1.022,0.64 L 62.218,68.445 C 61.76,68.34 61.473,67.882 61.579,67.423 l 0.941,-4.085 c 0.106,-0.459 0.564,-0.746 1.022,-0.64 z"
         id="path53"
         inkscape:connector-curvature="0"
         style="fill:#000000" />
      <path
         d="m 63.542,62.698 6.759,1.557 c 0.459,0.106 0.745,0.564 0.639,1.023 l -0.941,4.085 c -0.106,0.459 -0.564,0.745 -1.022,0.64 L 62.218,68.445 C 61.76,68.34 61.473,67.882 61.579,67.423 l 0.941,-4.085 c 0.106,-0.459 0.564,-0.746 1.022,-0.64 z"
         stroke-miterlimit="2"
         id="path55"
         inkscape:connector-curvature="0"
         style="vector-effect:non-scaling-stroke;fill:none;stroke:#565656;stroke-width:0.105;stroke-linecap:butt;stroke-linejoin:miter;stroke-miterlimit:2;stroke-opacity:1" />
      <path
         d="m 73.566,65.008 6.758,1.557 c 0.459,0.106 0.745,0.564 0.64,1.022 l -0.942,4.086 C 79.917,72.131 79.458,72.418 79,72.312 l -6.759,-1.557 c -0.458,-0.106 -0.745,-0.564 -0.639,-1.023 l 0.941,-4.085 c 0.106,-0.458 0.564,-0.745 1.023,-0.639 z"
         id="path57"
         inkscape:connector-curvature="0"
         style="fill:#000000" />
      <path
         d="m 73.566,65.008 6.758,1.557 c 0.459,0.106 0.745,0.564 0.64,1.022 l -0.942,4.086 C 79.917,72.131 79.458,72.418 79,72.312 l -6.759,-1.557 c -0.458,-0.106 -0.745,-0.564 -0.639,-1.023 l 0.941,-4.085 c 0.106,-0.458 0.564,-0.745 1.023,-0.639 z"
         stroke-miterlimit="2"
         id="path59"
         inkscape:connector-curvature="0"
         style="vector-effect:non-scaling-stroke;fill:none;stroke:#565656;stroke-width:0.105;stroke-linecap:butt;stroke-linejoin:miter;stroke-miterlimit:2;stroke-opacity:1" />
    </g>
    <g
       transform="matrix(0.5,0,0,0.5,106.54925,59.70986)"
       id="g74"
       style="display:inline;filter:url(#kqS1lDdwMTTsE2exyKNqwGfAMAZA3VPE)">
      <linearGradient
         spreadMethod="reflect"
         id="_lgradient_0"
         x1="0.41732463"
         y1="0.91637206"
         x2="1.1747544"
         y2="0.63239431"
         gradientTransform="matrix(63.051,0,0,70.028,34,50.972)"
         gradientUnits="userSpaceOnUse">
        <stop
           offset="0.00000003"
           stop-opacity="1"
           style="stop-color:rgb(189,189,189)"
           id="stop63" />
        <stop
           offset="0.46505362"
           stop-opacity="1"
           style="stop-color:rgb(251,251,251)"
           id="stop65" />
        <stop
           offset="87.391304"
           stop-opacity="1"
           style="stop-color:rgb(128,128,128)"
           id="stop67" />
        <stop
           offset="1"
           stop-opacity="1"
           style="stop-color:rgb(34,34,34)"
           id="stop69" />
      </linearGradient>
      <path
         sodipodi:nodetypes="ccccccc"
         inkscape:connector-curvature="0"
         id="path72"
         d="m 50.783392,88.421719 28.394342,24.222811 5,8.35547 c 4.479,-1.556 8.903047,-3.67556 12.873047,-6.35156 l -3.703125,-8.39453 0.39896,-33.90173 z"
         style="opacity:1;vector-effect:non-scaling-stroke;fill:url(#linearGradient914);stroke:#929292;stroke-width:2.29999995;stroke-linecap:butt;stroke-linejoin:miter;stroke-miterlimit:4;stroke-dasharray:none" />
    </g>
    <g
       transform="matrix(0.5,0,0,0.5,106.54925,59.70986)"
       id="g113">
      <path
         d="m 31.027,16.365 6.758,1.557 c 0.459,0.106 0.745,0.564 0.64,1.022 l -0.942,4.086 c -0.105,0.458 -0.564,0.745 -1.022,0.639 l -6.759,-1.557 c -0.458,-0.106 -0.745,-0.564 -0.639,-1.023 l 0.941,-4.085 c 0.106,-0.459 0.564,-0.745 1.023,-0.639 z"
         id="path89"
         inkscape:connector-curvature="0"
         style="fill:#000000" />
      <path
         d="m 31.027,16.365 6.758,1.557 c 0.459,0.106 0.745,0.564 0.64,1.022 l -0.942,4.086 c -0.105,0.458 -0.564,0.745 -1.022,0.639 l -6.759,-1.557 c -0.458,-0.106 -0.745,-0.564 -0.639,-1.023 l 0.941,-4.085 c 0.106,-0.459 0.564,-0.745 1.023,-0.639 z"
         stroke-miterlimit="2"
         id="path91"
         inkscape:connector-curvature="0"
         style="vector-effect:non-scaling-stroke;fill:none;stroke:#565656;stroke-width:0.105;stroke-linecap:butt;stroke-linejoin:miter;stroke-miterlimit:2;stroke-opacity:1" />
      <path
         d="m 41.05,18.674 6.758,1.558 c 0.459,0.105 0.746,0.563 0.64,1.022 l -0.942,4.085 c -0.105,0.459 -0.563,0.745 -1.022,0.64 l -6.758,-1.558 c -0.459,-0.105 -0.746,-0.563 -0.64,-1.022 l 0.941,-4.085 c 0.106,-0.459 0.564,-0.745 1.023,-0.64 z"
         id="path93"
         inkscape:connector-curvature="0"
         style="fill:#000000" />
      <path
         d="m 41.05,18.674 6.758,1.558 c 0.459,0.105 0.746,0.563 0.64,1.022 l -0.942,4.085 c -0.105,0.459 -0.563,0.745 -1.022,0.64 l -6.758,-1.558 c -0.459,-0.105 -0.746,-0.563 -0.64,-1.022 l 0.941,-4.085 c 0.106,-0.459 0.564,-0.745 1.023,-0.64 z"
         stroke-miterlimit="2"
         id="path95"
         inkscape:connector-curvature="0"
         style="vector-effect:non-scaling-stroke;fill:none;stroke:#565656;stroke-width:0.105;stroke-linecap:butt;stroke-linejoin:miter;stroke-miterlimit:2;stroke-opacity:1" />
      <path
         d="m 51.073,20.984 6.759,1.557 c 0.458,0.106 0.745,0.564 0.639,1.022 l -0.941,4.086 c -0.106,0.458 -0.564,0.745 -1.023,0.639 l -6.758,-1.557 c -0.459,-0.106 -0.745,-0.564 -0.64,-1.022 l 0.942,-4.086 c 0.105,-0.458 0.563,-0.745 1.022,-0.639 z"
         id="path97"
         inkscape:connector-curvature="0"
         style="fill:#000000" />
      <path
         d="m 51.073,20.984 6.759,1.557 c 0.458,0.106 0.745,0.564 0.639,1.022 l -0.941,4.086 c -0.106,0.458 -0.564,0.745 -1.023,0.639 l -6.758,-1.557 c -0.459,-0.106 -0.745,-0.564 -0.64,-1.022 l 0.942,-4.086 c 0.105,-0.458 0.563,-0.745 1.022,-0.639 z"
         stroke-miterlimit="2"
         id="path99"
         inkscape:connector-curvature="0"
         style="vector-effect:non-scaling-stroke;fill:none;stroke:#565656;stroke-width:0.105;stroke-linecap:butt;stroke-linejoin:miter;stroke-miterlimit:2;stroke-opacity:1" />
      <path
         d="m 61.096,23.293 6.759,1.558 c 0.458,0.105 0.745,0.563 0.639,1.022 l -0.941,4.085 c -0.106,0.459 -0.564,0.746 -1.022,0.64 l -6.759,-1.557 c -0.459,-0.106 -0.745,-0.564 -0.639,-1.023 l 0.941,-4.085 c 0.106,-0.459 0.564,-0.745 1.022,-0.64 z"
         id="path101"
         inkscape:connector-curvature="0"
         style="fill:#000000" />
      <path
         d="m 61.096,23.293 6.759,1.558 c 0.458,0.105 0.745,0.563 0.639,1.022 l -0.941,4.085 c -0.106,0.459 -0.564,0.746 -1.022,0.64 l -6.759,-1.557 c -0.459,-0.106 -0.745,-0.564 -0.639,-1.023 l 0.941,-4.085 c 0.106,-0.459 0.564,-0.745 1.022,-0.64 z"
         stroke-miterlimit="2"
         id="path103"
         inkscape:connector-curvature="0"
         style="vector-effect:non-scaling-stroke;fill:none;stroke:#565656;stroke-width:0.105;stroke-linecap:butt;stroke-linejoin:miter;stroke-miterlimit:2;stroke-opacity:1" />
      <path
         d="m 71.12,25.603 6.758,1.557 c 0.459,0.106 0.745,0.564 0.639,1.023 l -0.941,4.085 c -0.106,0.459 -0.564,0.745 -1.022,0.64 L 69.795,31.35 C 69.337,31.245 69.05,30.786 69.156,30.328 l 0.941,-4.086 c 0.106,-0.458 0.564,-0.745 1.023,-0.639 z"
         id="path105"
         inkscape:connector-curvature="0"
         style="fill:#000000" />
      <path
         d="m 71.12,25.603 6.758,1.557 c 0.459,0.106 0.745,0.564 0.639,1.023 l -0.941,4.085 c -0.106,0.459 -0.564,0.745 -1.022,0.64 L 69.795,31.35 C 69.337,31.245 69.05,30.786 69.156,30.328 l 0.941,-4.086 c 0.106,-0.458 0.564,-0.745 1.023,-0.639 z"
         stroke-miterlimit="2"
         id="path107"
         inkscape:connector-curvature="0"
         style="vector-effect:non-scaling-stroke;fill:none;stroke:#565656;stroke-width:0.105;stroke-linecap:butt;stroke-linejoin:miter;stroke-miterlimit:2;stroke-opacity:1" />
      <path
         d="m 81.143,27.913 6.758,1.557 c 0.459,0.106 0.745,0.564 0.64,1.022 l -0.942,4.086 c -0.105,0.458 -0.563,0.745 -1.022,0.639 L 79.818,33.66 C 79.36,33.554 79.073,33.096 79.179,32.637 l 0.941,-4.085 c 0.106,-0.459 0.564,-0.745 1.023,-0.639 z"
         id="path109"
         inkscape:connector-curvature="0"
         style="fill:#000000" />
      <path
         d="m 81.143,27.913 6.758,1.557 c 0.459,0.106 0.745,0.564 0.64,1.022 l -0.942,4.086 c -0.105,0.458 -0.563,0.745 -1.022,0.639 L 79.818,33.66 C 79.36,33.554 79.073,33.096 79.179,32.637 l 0.941,-4.085 c 0.106,-0.459 0.564,-0.745 1.023,-0.639 z"
         stroke-miterlimit="2"
         id="path111"
         inkscape:connector-curvature="0"
         style="vector-effect:non-scaling-stroke;fill:none;stroke:#565656;stroke-width:0.105;stroke-linecap:butt;stroke-linejoin:miter;stroke-miterlimit:2;stroke-opacity:1" />
    </g>
    <path
       sodipodi:nodetypes="csssscc"
       inkscape:connector-curvature="0"
       id="rect880"
       d="m 153.20673,93.838397 0.45111,0.912324 c 0.24224,0.489915 0.30832,0.966629 -0.20366,1.157874 l -21.41779,8.000355 c -0.51194,0.19137 -1.02778,-0.0876 -1.27002,-0.57749 l -0.45111,-0.91232 c 6.05486,-3.890141 18.82966,-7.906769 22.89147,-8.580743 z"
       style="opacity:1;fill:#61fffa;fill-opacity:1;stroke:#929292;stroke-width:0.15000001;stroke-miterlimit:2;stroke-dasharray:none;stroke-opacity:1" />
    <path
       sodipodi:nodetypes="csssscc"
       inkscape:connector-curvature="0"
       id="rect870"
       d="m 154.22245,86.733697 1.65441,4.413603 c 0.29219,0.779481 -0.10011,1.642229 -0.8796,1.934413 l -26.14594,9.800657 c -0.77948,0.29219 -1.64223,-0.10011 -1.93441,-0.87959 l -1.65442,-4.413606 z"
       style="opacity:1;fill:url(#linearGradient878);fill-opacity:1;stroke:#929292;stroke-width:0.15000001;stroke-miterlimit:2;stroke-dasharray:none;stroke-opacity:1" />
  </g>
</svg>
